<svg width="18" height="18" viewBox="0 0 18 18" fill="none" xmlns="http://www.w3.org/2000/svg">
<path d="M8.96163 3.42039e-06C6.71854 -0.00195194 4.55573 0.834533 2.89769 2.34527C1.23965 3.85601 0.206138 5.9319 0 8.16549H7.32444V5.71585C7.32383 5.5537 7.3715 5.39504 7.46138 5.26009C7.55127 5.12513 7.6793 5.01999 7.82916 4.95807C7.97901 4.89615 8.14392 4.88024 8.30285 4.91239C8.46178 4.94453 8.60754 5.02326 8.72156 5.13855L11.9951 8.40474C12.1482 8.55787 12.2342 8.76552 12.2342 8.98204C12.2342 9.19856 12.1482 9.40622 11.9951 9.55934L8.72156 12.8255C8.60754 12.9408 8.46178 13.0196 8.30285 13.0517C8.14392 13.0838 7.97901 13.0679 7.82916 13.006C7.6793 12.9441 7.55127 12.839 7.46138 12.704C7.3715 12.569 7.32383 12.4104 7.32444 12.2482V9.79859H0C0.154936 11.5378 0.812459 13.1944 1.89243 14.5665C2.9724 15.9386 4.42818 16.9669 6.08234 17.526C7.7365 18.0852 9.51761 18.1511 11.2086 17.7158C12.8995 17.2804 14.4273 16.3625 15.6058 15.074C16.7842 13.7855 17.5624 12.182 17.8455 10.459C18.1285 8.736 17.9043 6.96785 17.2 5.37005C16.4957 3.77226 15.3419 2.41383 13.8791 1.46033C12.4163 0.506835 10.7077 -0.000554925 8.96163 3.42039e-06Z" fill="#41D56F"/>
</svg>
