<svg width="49" height="40" viewBox="0 0 49 40" fill="none" xmlns="http://www.w3.org/2000/svg">
<path d="M46.1702 5.04895C44.4103 2.7628 41.9312 1.12928 39.1288 0.409223C36.3265 -0.310834 33.3624 -0.0759039 30.71 1.0765C28.2365 2.17468 26.0954 3.89858 24.5 6.07644C22.9078 3.89556 20.7658 2.17095 18.29 1.0765C15.6376 -0.0759039 12.6735 -0.310834 9.87116 0.409223C7.06879 1.12928 4.58971 2.7628 2.82976 5.04895C0.946554 7.55153 -0.048147 10.6054 0.00179269 13.7313C0.00179269 18.4475 2.83982 23.6212 8.43546 29.1149C12.3471 32.834 16.6193 36.1585 21.1896 39.0398C22.1789 39.6669 23.3276 40 24.5006 40C25.6737 40 26.8223 39.6669 27.8117 39.0398C32.3815 36.158 36.6537 32.8335 40.5658 29.1149C46.1602 23.6225 48.9982 18.4475 48.9982 13.7313C49.0481 10.6054 48.0534 7.55153 46.1702 5.04895Z" fill="#254AA5"/>
</svg>
