<svg width="40" height="40" viewBox="0 0 40 40" fill="none" xmlns="http://www.w3.org/2000/svg">
<path d="M38.9212 17.3968L22.6017 1.07878C22.2598 0.736768 21.8538 0.465466 21.407 0.280368C20.9602 0.0952694 20.4812 0 19.9976 0C19.514 0 19.0351 0.0952694 18.5882 0.280368C18.1414 0.465466 17.7354 0.736768 17.3935 1.07878L1.08733 17.3849L1.07104 17.4012C0.567856 17.9072 0.222571 18.5485 0.0772 19.2471C-0.0681714 19.9457 -0.00736257 20.6714 0.252227 21.3361C0.511817 22.0008 0.958996 22.5757 1.53935 22.9908C2.11971 23.406 2.80822 23.6435 3.52111 23.6745C3.55863 23.6745 3.59665 23.6745 3.63517 23.6745H4.28546V35.6805C4.28507 36.8237 4.73854 37.9204 5.54625 38.7295C6.35396 39.5386 7.44983 39.9939 8.59308 39.9955H14.9775C15.2882 39.9955 15.5863 39.8721 15.806 39.6523C16.0257 39.4326 16.1492 39.1345 16.1492 38.8238V29.4101C16.15 28.889 16.3573 28.3895 16.7258 28.021C17.0943 27.6526 17.5938 27.4452 18.1149 27.4444H21.8803C22.4022 27.4441 22.9029 27.6509 23.2723 28.0195C23.6417 28.3881 23.8497 28.8883 23.8505 29.4101V38.8223C23.8505 39.1331 23.9739 39.4311 24.1937 39.6508C24.4134 39.8706 24.7114 39.994 25.0222 39.994H31.4051C32.5478 39.9932 33.6436 39.539 34.4518 38.7311C35.2599 37.9232 35.7145 36.8277 35.7157 35.6849V23.6805H36.3186C37.0465 23.6802 37.758 23.4643 38.3632 23.0599C38.9685 22.6556 39.4403 22.0809 39.7191 21.4085C39.998 20.7361 40.0713 19.9962 39.9298 19.2821C39.7883 18.5681 39.4383 17.912 38.9242 17.3968H38.9212Z" fill="#F7F9FD"/>
</svg>
