<svg width="46" height="22" viewBox="0 0 46 22" fill="none" xmlns="http://www.w3.org/2000/svg">
<path d="M44.8973 0.040764L35.1964 2.43147C34.4261 2.62024 34.255 3.23851 34.8163 3.80609L36.8865 5.85346C37.06 6.05364 36.8535 6.32096 36.6901 6.43372C34.6878 7.7999 32.6069 9.04703 30.458 10.1686C14.8912 18.3961 2.05335 17.8919 1.86585 17.883C1.38459 17.8918 0.924578 18.0828 0.578714 18.4176C0.23285 18.7523 0.0269004 19.2059 0.00245446 19.6866C-0.0219915 20.1673 0.136888 20.6394 0.447008 21.0075C0.757129 21.3756 1.19538 21.6123 1.67327 21.6699C1.74929 21.6699 2.05335 21.6876 2.5766 21.6876C5.90357 21.6876 17.8546 21.1061 32.1887 13.5311C34.6517 12.2499 37.0277 10.808 39.3012 9.21464C39.4951 9.07654 39.8333 8.83456 40.1463 9.15889L42.4103 11.452C42.9703 12.0196 43.5784 11.8448 43.7608 11.0644L45.9615 1.11639C46.1427 0.337228 45.6676 -0.148009 44.8973 0.040764Z" fill="#254AA5"/>
</svg>
