<svg width="13" height="13" viewBox="0 0 13 13" fill="none" xmlns="http://www.w3.org/2000/svg">
<path d="M6.5 0C5.21442 0 3.95771 0.381217 2.8888 1.09545C1.81988 1.80968 0.986757 2.82483 0.494787 4.01255C0.00281729 5.20027 -0.125906 6.50721 0.124898 7.76809C0.375702 9.02896 0.994764 10.1871 1.90381 11.0962C2.81285 12.0052 3.97104 12.6243 5.23191 12.8751C6.49279 13.1259 7.79972 12.9972 8.98744 12.5052C10.1752 12.0132 11.1903 11.1801 11.9046 10.1112C12.6188 9.04228 13 7.78557 13 6.49999C13 4.77608 12.3152 3.12279 11.0962 1.9038C9.87721 0.684814 8.22391 0 6.5 0Z" fill="#254AA5"/>
</svg>
