<svg width="19" height="19" viewBox="0 0 19 19" fill="none" xmlns="http://www.w3.org/2000/svg">
<path d="M14.2347 0H4.76832C3.50432 0.00121202 2.29242 0.503757 1.39849 1.3974C0.50456 2.29104 0.00161682 3.50281 0 4.76681L0 14.2332C0.00161603 15.4969 0.50435 16.7084 1.39795 17.602C2.29154 18.4956 3.50306 18.9984 4.7668 19H14.2332C15.4969 18.9984 16.7085 18.4956 17.6021 17.602C18.4957 16.7084 18.9984 15.4969 19 14.2332V4.76681C18.9984 3.50334 18.4959 2.29202 17.6026 1.39847C16.7093 0.504916 15.4982 0.00201988 14.2347 0ZM15.7814 14.2347C15.781 14.6448 15.6179 15.038 15.328 15.328C15.038 15.6179 14.6448 15.781 14.2347 15.7814H4.76832C4.35824 15.781 3.96507 15.6179 3.67509 15.328C3.38512 15.038 3.22204 14.6448 3.22163 14.2347V4.7683C3.22204 4.35822 3.38512 3.96505 3.67509 3.67508C3.96507 3.38511 4.35824 3.22202 4.76832 3.22161H14.2347C14.6448 3.22202 15.038 3.38511 15.328 3.67508C15.6179 3.96505 15.781 4.35822 15.7814 4.7683V14.2347Z" fill="black"/>
</svg>
