<svg width="29" height="29" viewBox="0 0 29 29" fill="none" xmlns="http://www.w3.org/2000/svg">
<path d="M18.6844 3.09527C18.6828 2.27978 19.0052 1.49705 19.5807 0.919248C16.4791 -0.241055 13.0739 -0.304797 9.93112 0.738629C6.78835 1.78205 4.09741 3.86978 2.30572 6.65467C0.514038 9.43956 -0.270444 12.7538 0.0827202 16.0464C0.435885 19.339 1.90542 22.4114 4.24697 24.753C6.58852 27.0946 9.66102 28.5641 12.9536 28.9172C16.2462 29.2704 19.5604 28.4859 22.3453 26.6942C25.1302 24.9026 27.2179 22.2116 28.2613 19.0689C29.3048 15.9261 29.241 12.5208 28.0807 9.41931C27.7947 9.70432 27.4553 9.93017 27.0819 10.084C26.7085 10.2377 26.3085 10.3164 25.9047 10.3156H23.9999C24.971 12.5261 25.139 15.0065 24.475 17.3279C23.811 19.6492 22.3567 21.6655 20.3635 23.0282C18.3703 24.3908 15.9636 25.014 13.5595 24.7901C11.1555 24.5662 8.90527 23.5092 7.198 21.802C5.49073 20.0947 4.43375 17.8445 4.20984 15.4404C3.98594 13.0364 4.60919 10.6297 5.97181 8.63649C7.33444 6.64329 9.35076 5.18895 11.6721 4.52494C13.9935 3.86093 16.4739 4.029 18.6844 5.0001V3.09527Z" fill="#254AA5"/>
</svg>
