<svg width="17" height="17" viewBox="0 0 17 17" fill="none" xmlns="http://www.w3.org/2000/svg">
<path d="M8.49868 0C6.81766 0.000256743 5.17445 0.498958 3.77683 1.43305C2.37922 2.36714 1.28996 3.69467 0.646775 5.24778C0.00359231 6.8009 -0.164622 8.50985 0.163393 10.1586C0.491408 11.8073 1.30092 13.3217 2.48959 14.5104C3.67825 15.699 5.1927 16.5086 6.84141 16.8366C8.49012 17.1646 10.1991 16.9964 11.7522 16.3532C13.3053 15.71 14.6328 14.6207 15.5669 13.2231C16.501 11.8255 16.9997 10.1823 17 8.50128C16.9976 6.24734 16.1011 4.0864 14.5073 2.49262C12.9136 0.898846 10.7526 0.00240531 8.49868 0Z" fill="#254AA5"/>
</svg>
