<svg width="19" height="19" viewBox="0 0 19 19" fill="none" xmlns="http://www.w3.org/2000/svg">
<path d="M14.2347 0H4.76832C3.50432 0.00121202 2.29242 0.503767 1.39849 1.39741C0.50456 2.29105 0.00161682 3.5028 0 4.7668L0 14.2332C0.00161603 15.4969 0.50435 16.7085 1.39795 17.6021C2.29154 18.4957 3.50306 18.9984 4.7668 19H14.2332C15.4969 18.9984 16.7085 18.4957 17.6021 17.6021C18.4957 16.7085 18.9984 15.4969 19 14.2332V4.7668C18.9984 3.50332 18.4959 2.29204 17.6026 1.39849C16.7093 0.504932 15.4982 0.00201988 14.2347 0V0ZM15.7814 14.2347C15.781 14.6448 15.6179 15.038 15.328 15.328C15.038 15.6179 14.6448 15.781 14.2347 15.7814H4.76832C4.35797 15.7814 3.96441 15.6185 3.67411 15.3285C3.38381 15.0385 3.22051 14.6451 3.22011 14.2347V4.76832C3.22011 4.35797 3.38301 3.96441 3.67303 3.67411C3.96305 3.38381 4.35645 3.22051 4.7668 3.22011H14.2332C14.6433 3.22051 15.0365 3.3836 15.3264 3.67357C15.6164 3.96354 15.7795 4.35671 15.7799 4.7668L15.7814 14.2347Z" fill="black"/>
</svg>
