<svg width="20" height="20" viewBox="0 0 20 20" fill="none" xmlns="http://www.w3.org/2000/svg">
<path d="M7.40079 7.35098V11.1134L0.363311 18.1509C0.255271 18.2444 0.167411 18.3589 0.105126 18.4875C0.0428404 18.6161 0.0074334 18.756 0.00104988 18.8987C-0.00533364 19.0414 0.0174433 19.184 0.0680017 19.3176C0.11856 19.4512 0.195833 19.5731 0.295097 19.6759C0.39436 19.7786 0.513533 19.86 0.645331 19.9152C0.777128 19.9703 0.918794 19.998 1.06165 19.9966C1.20451 19.9951 1.34557 19.9645 1.47621 19.9067C1.60686 19.8489 1.72436 19.7651 1.82152 19.6603L1.84778 19.6341L8.88527 12.5966H12.6556C12.9339 12.5965 13.2009 12.4859 13.3978 12.2892L19.6944 5.99262C19.8405 5.84558 19.94 5.65859 19.9801 5.45518C20.0203 5.25178 19.9993 5.04104 19.92 4.84949C19.8406 4.65795 19.7064 4.49415 19.5342 4.37871C19.362 4.26327 19.1595 4.20134 18.9521 4.20073H15.7993V1.04786C15.7987 0.840527 15.7367 0.638011 15.6213 0.465792C15.5058 0.293573 15.342 0.159345 15.1505 0.080002C14.959 0.000658725 14.7482 -0.0202547 14.5448 0.0198907C14.3414 0.0600361 14.1544 0.159447 14.0074 0.305616L7.71081 6.60217C7.61214 6.70025 7.53395 6.81695 7.48073 6.94549C7.42751 7.07403 7.40033 7.21186 7.40079 7.35098Z" fill="#254AA5"/>
</svg>
