<svg width="19" height="19" viewBox="0 0 19 19" fill="none" xmlns="http://www.w3.org/2000/svg">
<path d="M14.1695 0H4.83054C3.5499 0.00161595 2.32217 0.511071 1.41662 1.41662C0.511071 2.32217 0.00161595 3.5499 0 4.83054V14.1695C0.00161595 15.4501 0.511071 16.6779 1.41662 17.5834C2.32217 18.489 3.5499 18.9984 4.83054 19H14.1695C15.4501 18.9984 16.6779 18.489 17.5834 17.5834C18.489 16.6779 18.9984 15.4501 19 14.1695V4.83054C18.9984 3.5499 18.489 2.32217 17.5834 1.41662C16.6779 0.511071 15.4501 0.00161595 14.1695 0ZM15.7802 14.1695C15.7798 14.5965 15.6099 15.006 15.308 15.308C15.006 15.6099 14.5965 15.7798 14.1695 15.7802H4.83054C4.40348 15.7798 3.99405 15.6099 3.69207 15.308C3.3901 15.006 3.22027 14.5965 3.21986 14.1695V4.83054C3.22027 4.40348 3.3901 3.99405 3.69207 3.69207C3.99405 3.3901 4.40348 3.22027 4.83054 3.21986H14.1695C14.5965 3.22027 15.006 3.3901 15.308 3.69207C15.6099 3.99405 15.7798 4.40348 15.7802 4.83054V14.1695Z" fill="black"/>
</svg>
