<svg width="40" height="40" viewBox="0 0 40 40" fill="none" xmlns="http://www.w3.org/2000/svg">
<path d="M37.6439 10.5848L34.6564 13.5723C36.1538 16.9884 36.4106 20.8202 35.3825 24.4055C34.3545 27.9908 32.1062 31.1044 29.0262 33.2079C25.9462 35.3115 22.228 36.2729 18.5144 35.9261C14.8007 35.5792 11.325 33.9458 8.68779 31.3083C6.05062 28.6707 4.41778 25.1947 4.07148 21.481C3.72518 17.7673 4.68718 14.0493 6.79122 10.9696C8.89526 7.88992 12.0091 5.64207 15.5946 4.61457C19.1801 3.58706 23.0119 3.84447 26.4277 5.34231L29.4152 2.35481C25.1851 0.0977071 20.285 -0.564668 15.6074 0.488362C10.9299 1.54139 6.78632 4.23975 3.93158 8.09183C1.07683 11.9439 -0.29909 16.6933 0.0544835 21.4749C0.408057 26.2564 2.46759 30.7518 5.85788 34.1421C9.24817 37.5324 13.7436 39.5919 18.5251 39.9455C23.3067 40.2991 28.0561 38.9232 31.9082 36.0684C35.7603 33.2137 38.4586 29.0701 39.5116 24.3926C40.5647 19.715 39.9023 14.8149 37.6452 10.5848H37.6439Z" fill="#254AA5"/>
</svg>
