<svg width="16" height="16" viewBox="0 0 16 16" fill="none" xmlns="http://www.w3.org/2000/svg">
<path d="M11.1239 0.635148C9.41469 -0.0898637 7.50649 -0.197773 5.7264 0.329888C3.94631 0.857548 2.40516 1.98794 1.36713 3.5273C0.329106 5.06667 -0.141179 6.91914 0.0368919 8.76723C0.214963 10.6153 1.03031 12.344 2.34316 13.6568C3.65601 14.9697 5.38462 15.785 7.23271 15.963C9.0808 16.1411 10.9333 15.6708 12.4727 14.6328C14.012 13.5948 15.1424 12.0537 15.6701 10.2736C16.1977 8.49347 16.0898 6.58527 15.3648 4.87603L10.1241 10.1167C9.55949 10.6368 8.81722 10.9209 8.04968 10.9108C7.28214 10.9007 6.5476 10.597 5.99695 10.0622C5.44629 9.52741 5.12132 8.80208 5.08876 8.03516C5.05621 7.26824 5.31856 6.51797 5.82191 5.93843L5.88322 5.87712L11.1239 0.635148Z" fill="#254AA5"/>
</svg>
