<svg width="23" height="12" viewBox="0 0 23 12" fill="none" xmlns="http://www.w3.org/2000/svg">
<path d="M18.9604 12H3.24345C1.4559 12 0 10.5402 0 8.74777V3.25223C0 1.45984 1.4559 0 3.24345 0H18.9604C20.748 0 22.2039 1.45984 22.2039 3.25223V8.74777C22.2039 10.5402 20.748 12 18.9604 12ZM3.24345 0.721465C1.85501 0.721465 0.719517 1.85439 0.719517 3.25223V8.74777C0.719517 10.14 1.84938 11.2785 3.24345 11.2785H18.9604C20.3489 11.2785 21.4844 10.1456 21.4844 8.74777V3.25223C21.4844 1.86003 20.3545 0.721465 18.9604 0.721465H3.24345Z" fill="white"/>
</svg>
