<svg width="24" height="23" viewBox="0 0 24 23" fill="none" xmlns="http://www.w3.org/2000/svg">
<path d="M23.9873 0.313274C23.9873 0.313274 20.9999 -0.0421943 17.4407 0.00417115C14.821 0.0387179 13.0233 0.380549 11.8128 0.762382V0.763291C6.96896 2.31608 5.11617 5.9744 3.5091 8.90906C2.39887 10.9364 1.02577 13.3801 0.350959 15.6102C-1.21818 20.7995 2.83971 22.7205 5.30678 22.9105C9.14696 23.2069 14.1154 22.6723 14.1154 22.6723L16.4199 18.2521C16.4199 18.2521 10.0377 18.8458 7.28875 18.4594C6.33119 18.3249 5.92016 17.823 5.87409 17.1012C5.81537 16.173 6.35196 15.0829 7.1135 13.531C7.87503 11.9801 9.45229 9.23089 9.45229 9.23089C10.2734 7.7281 10.9555 6.91353 11.8263 6.09531C13.316 4.87345 14.9556 4.62071 17.4073 4.63162C19.3143 4.6398 21.5654 4.90345 21.5654 4.90345L23.9873 0.313274Z" fill="white"/>
</svg>
