<svg width="24" height="23" viewBox="0 0 24 23" fill="none" xmlns="http://www.w3.org/2000/svg">
<path d="M7.12548 18.1926C4.84617 17.8627 5.6759 15.887 7.09243 13.3208C7.53096 13.3496 9.17524 13.3703 9.17524 13.3703H20.4646C20.4646 13.3703 21.1327 12.1595 22.8957 8.84817C25.8342 3.33285 22.5805 0.0682406 17.0028 0.001726C9.02252 -0.0935517 6.33326 3.76699 3.48949 8.80053C2.32751 10.858 0.995826 13.4898 0.367053 15.4259C-0.439457 17.9148 0.192887 19.5894 1.20214 20.7938C2.24176 22.0333 3.90212 22.5295 5.26774 22.6446C9.05199 22.9663 14.7395 22.4091 14.7395 22.4091L17.0492 18.0272C17.0483 18.0263 9.84153 18.5854 7.12548 18.1926ZM15.8319 4.37102C17.3529 4.37102 19.2973 4.95617 18.1442 7.1116C17.419 8.46616 16.9912 9.32995 16.9912 9.32995H8.99662C11.0678 5.51345 12.8041 4.37102 15.8319 4.37102Z" fill="white"/>
</svg>
