<svg width="19" height="29" viewBox="0 0 19 29" fill="none" xmlns="http://www.w3.org/2000/svg">
<path d="M14.2358 6.35596L17.5805 0L11.7284 0.00451097L8.39259 6.35596L4.42212 6.35957L2.1137 10.756L4.27241 10.7487L6.11555 10.6919C6.11555 10.6919 3.81879 15.2651 2.11819 18.5482C0.750169 21.188 -0.0736887 22.9988 0.00520082 24.8275C0.0491279 25.8749 0.443576 26.8656 1.08097 27.5034C2.83357 29.2564 5.70587 29.0823 8.40066 28.8693L10.7835 24.3466C9.12411 24.4459 7.79196 24.3963 7.324 24.3277C5.76503 24.1021 5.46561 23.412 6.0779 22.1651C7.30338 19.5776 11.9453 10.7208 11.9453 10.7208L13.9211 10.783L16.3963 10.7866L18.7262 6.35686L14.2358 6.35596Z" fill="white"/>
</svg>
