<svg width="24" height="23" viewBox="0 0 24 23" fill="none" xmlns="http://www.w3.org/2000/svg">
<path d="M7.12558 18.1929C4.84623 17.863 5.67598 15.8873 7.09253 13.3211C7.53018 13.3498 9.17538 13.3705 9.17538 13.3705H20.4649C20.4649 13.3705 21.133 12.1597 22.8961 8.84833C25.8337 3.33291 22.5808 0.0682419 17.003 0.00172603C9.02355 -0.0935534 6.33245 3.76706 3.48952 8.80069C2.32752 10.8582 0.994922 13.4901 0.36703 15.4262C-0.439494 17.9152 0.192864 19.5897 1.20303 20.7942C2.24267 22.0338 3.90305 22.5299 5.26691 22.645C9.05213 22.9668 14.7398 22.4095 14.7398 22.4095L17.0486 18.0275C17.0486 18.0266 9.84168 18.5857 7.12558 18.1929ZM15.8321 4.3711C17.3541 4.3711 19.2967 4.95626 18.1427 7.11173C17.4193 8.46632 16.9905 9.33012 16.9905 9.33012H8.99586C11.068 5.51355 12.8034 4.3711 15.8321 4.3711Z" fill="white"/>
</svg>
