<svg width="8" height="13" viewBox="0 0 8 13" fill="none" xmlns="http://www.w3.org/2000/svg">
<path d="M2.64442 3.9934C3.08754 3.78347 3.62119 3.67851 4.24537 3.67851C4.73614 3.67851 5.21261 3.76916 5.66526 3.95046C6.11791 4.13176 6.51814 4.39894 6.86597 4.74723C7.21379 5.10029 7.49015 5.53446 7.69503 6.05451C7.89991 6.57456 7.99997 7.17571 7.99997 7.85321C7.99997 8.45436 7.90468 9.01258 7.70933 9.5374C7.51397 10.0574 7.23762 10.5059 6.88503 10.8924C6.53244 11.2741 6.09885 11.5747 5.59379 11.7894C5.08873 12.004 4.52172 12.1138 3.90707 12.1138C3.40201 12.1138 2.93031 12.0374 2.48242 11.8848C2.0393 11.7321 1.64383 11.4983 1.296 11.1834C0.952944 10.8685 0.662297 10.4821 0.43359 10.0097C0.204883 9.54217 0.0619414 8.98872 0 8.35894H2.18224C2.22036 8.68815 2.28707 8.97918 2.38713 9.22251C2.48719 9.4706 2.61583 9.67576 2.7683 9.83798C2.92078 10.0002 3.09231 10.1195 3.28766 10.2006C3.47825 10.2769 3.68313 10.3199 3.90231 10.3199C4.18819 10.3199 4.45025 10.2578 4.68372 10.1386C4.9172 10.0193 5.12208 9.85229 5.28884 9.63759C5.45561 9.42289 5.58902 9.1748 5.67955 8.8933C5.77008 8.61181 5.81773 8.30646 5.81773 7.98202C5.81773 7.58602 5.77008 7.23774 5.67479 6.93716C5.57949 6.63658 5.44608 6.38371 5.27455 6.18333C5.10302 5.98294 4.89814 5.83027 4.66466 5.72053C4.42643 5.61557 4.16437 5.56309 3.87849 5.56309C3.21142 5.56309 2.6063 5.86843 2.06789 6.47436H0.400237L0.924356 0H7.48062V1.98477H2.79689L2.64442 3.99817V3.9934Z" fill="white"/>
</svg>
